<?xml version="1.0" encoding="UTF-8" standalone="no"?>
<!DOCTYPE svg PUBLIC "-//W3C//DTD SVG 1.1//EN"
 "http://www.w3.org/Graphics/SVG/1.1/DTD/svg11.dtd">
<!-- Generated by graphviz version 14.1.3 (20260303.0454)
 -->
<!-- Title: memory_map Pages: 1 -->
<svg width="2033pt" height="408pt"
 viewBox="0.00 0.00 2033.00 408.00" xmlns="http://www.w3.org/2000/svg" xmlns:xlink="http://www.w3.org/1999/xlink">
<g id="graph0" class="graph" transform="scale(1 1) rotate(0) translate(4 403.5)">
<title>memory_map</title>
<polygon fill="white" stroke="none" points="-4,4 -4,-403.5 2029.38,-403.5 2029.38,4 -4,4"/>
<text xml:space="preserve" text-anchor="middle" x="1012.69" y="-376.5" font-family="Times,serif" font-size="20.00">Current Memory and MMIO Map</text>
<!-- address_decode -->
<g id="node1" class="node">
<title>address_decode</title>
<path fill="#edf6ff" stroke="#555555" d="M792.88,-259.5C792.88,-259.5 1115.62,-259.5 1115.62,-259.5 1121.62,-259.5 1127.62,-265.5 1127.62,-271.5 1127.62,-271.5 1127.62,-355 1127.62,-355 1127.62,-361 1121.62,-367 1115.62,-367 1115.62,-367 792.88,-367 792.88,-367 786.88,-367 780.88,-361 780.88,-355 780.88,-355 780.88,-271.5 780.88,-271.5 780.88,-265.5 786.88,-259.5 792.88,-259.5"/>
<text xml:space="preserve" text-anchor="middle" x="954.25" y="-352.55" font-family="Consolas" font-size="11.00">mem_stage.sv address decode</text>
<polyline fill="none" stroke="#555555" points="780.88,-345.5 1127.62,-345.5"/>
<text xml:space="preserve" text-anchor="middle" x="954.25" y="-331.05" font-family="Consolas" font-size="11.00">ram_sel: addr[31:28] == 0x0</text>
<polyline fill="none" stroke="#555555" points="780.88,-324 1127.62,-324"/>
<text xml:space="preserve" text-anchor="middle" x="954.25" y="-309.55" font-family="Consolas" font-size="11.00">uart_sel: addr[31:28] == 0x8</text>
<polyline fill="none" stroke="#555555" points="780.88,-302.5 1127.62,-302.5"/>
<text xml:space="preserve" text-anchor="middle" x="954.25" y="-288.05" font-family="Consolas" font-size="11.00">perf_sel/debug_sel/timer_sel: addr[31:28] == 0xC</text>
<polyline fill="none" stroke="#555555" points="780.88,-281 1127.62,-281"/>
<text xml:space="preserve" text-anchor="middle" x="954.25" y="-266.55" font-family="Consolas" font-size="11.00">ledctrl_sel/btnsw_sel/pwm_sel: addr[31:28] == 0xD</text>
</g>
<!-- internal_bus -->
<g id="node2" class="node">
<title>internal_bus</title>
<path fill="#fafafa" stroke="#999999" d="M887.38,-165.75C887.38,-165.75 1021.12,-165.75 1021.12,-165.75 1027.12,-165.75 1033.12,-171.75 1033.12,-177.75 1033.12,-177.75 1033.12,-189.75 1033.12,-189.75 1033.12,-195.75 1027.12,-201.75 1021.12,-201.75 1021.12,-201.75 887.38,-201.75 887.38,-201.75 881.38,-201.75 875.38,-195.75 875.38,-189.75 875.38,-189.75 875.38,-177.75 875.38,-177.75 875.38,-171.75 881.38,-165.75 887.38,-165.75"/>
<text xml:space="preserve" text-anchor="middle" x="954.25" y="-183.8" font-family="Consolas" font-size="11.00">Internal bus boundary</text>
<polyline fill="none" stroke="#999999" points="875.38,-173.25 1033.12,-173.25"/>
</g>
<!-- address_decode&#45;&gt;internal_bus -->
<g id="edge1" class="edge">
<title>address_decode&#45;&gt;internal_bus</title>
<path fill="none" stroke="#555555" d="M954.25,-259.08C954.25,-259.08 954.25,-213.52 954.25,-213.52"/>
<polygon fill="#555555" stroke="#555555" points="957.75,-213.52 954.25,-203.52 950.75,-213.52 957.75,-213.52"/>
<text xml:space="preserve" text-anchor="middle" x="999.25" y="-227.5" font-family="Consolas" font-size="10.00">decode boundary</text>
</g>
<!-- data_mem -->
<g id="node3" class="node">
<title>data_mem</title>
<path fill="#f7f7f7" stroke="#555555" d="M12,-0.5C12,-0.5 206.5,-0.5 206.5,-0.5 212.5,-0.5 218.5,-6.5 218.5,-12.5 218.5,-12.5 218.5,-96 218.5,-96 218.5,-102 212.5,-108 206.5,-108 206.5,-108 12,-108 12,-108 6,-108 0,-102 0,-96 0,-96 0,-12.5 0,-12.5 0,-6.5 6,-0.5 12,-0.5"/>
<text xml:space="preserve" text-anchor="middle" x="109.25" y="-93.55" font-family="Consolas" font-size="11.00">0x00000000 region</text>
<polyline fill="none" stroke="#555555" points="0,-86.5 218.5,-86.5"/>
<text xml:space="preserve" text-anchor="middle" x="109.25" y="-72.05" font-family="Consolas" font-size="11.00">Data RAM</text>
<polyline fill="none" stroke="#555555" points="0,-65 218.5,-65"/>
<text xml:space="preserve" text-anchor="middle" x="109.25" y="-50.55" font-family="Consolas" font-size="11.00">word address: alu_result[11:2]</text>
<polyline fill="none" stroke="#555555" points="0,-43.5 218.5,-43.5"/>
<text xml:space="preserve" text-anchor="middle" x="109.25" y="-29.05" font-family="Consolas" font-size="11.00">byte enables for SB/SH/SW</text>
<polyline fill="none" stroke="#555555" points="0,-22 218.5,-22"/>
<text xml:space="preserve" text-anchor="middle" x="109.25" y="-7.55" font-family="Consolas" font-size="11.00">LB/LH/LBU/LHU/LW formatting</text>
</g>
<!-- internal_bus&#45;&gt;data_mem -->
<g id="edge2" class="edge">
<title>internal_bus&#45;&gt;data_mem</title>
<path fill="none" stroke="#555555" d="M875.13,-190C665.07,-190 109.25,-190 109.25,-190 109.25,-190 109.25,-119.81 109.25,-119.81"/>
<polygon fill="#555555" stroke="#555555" points="112.75,-119.81 109.25,-109.81 105.75,-119.81 112.75,-119.81"/>
<text xml:space="preserve" text-anchor="middle" x="139.25" y="-133.75" font-family="Consolas" font-size="10.00">RAM access</text>
</g>
<!-- uart -->
<g id="node4" class="node">
<title>uart</title>
<path fill="#fff4e6" stroke="#555555" d="M266.38,-11.25C266.38,-11.25 616.12,-11.25 616.12,-11.25 622.12,-11.25 628.12,-17.25 628.12,-23.25 628.12,-23.25 628.12,-85.25 628.12,-85.25 628.12,-91.25 622.12,-97.25 616.12,-97.25 616.12,-97.25 266.38,-97.25 266.38,-97.25 260.38,-97.25 254.38,-91.25 254.38,-85.25 254.38,-85.25 254.38,-23.25 254.38,-23.25 254.38,-17.25 260.38,-11.25 266.38,-11.25"/>
<text xml:space="preserve" text-anchor="middle" x="441.25" y="-82.8" font-family="Consolas" font-size="11.00">0x80000000 region</text>
<polyline fill="none" stroke="#555555" points="254.38,-75.75 628.12,-75.75"/>
<text xml:space="preserve" text-anchor="middle" x="441.25" y="-61.3" font-family="Consolas" font-size="11.00">0x80000000 UART_STATUS: bit0 tx_busy, bit1 rx_valid</text>
<polyline fill="none" stroke="#555555" points="254.38,-54.25 628.12,-54.25"/>
<text xml:space="preserve" text-anchor="middle" x="441.25" y="-39.8" font-family="Consolas" font-size="11.00">0x80000004 UART_TX_DATA: write byte[7:0]</text>
<polyline fill="none" stroke="#555555" points="254.38,-32.75 628.12,-32.75"/>
<text xml:space="preserve" text-anchor="middle" x="441.25" y="-18.3" font-family="Consolas" font-size="11.00">0x80000008 UART_RX_DATA: read byte[7:0], clears valid</text>
</g>
<!-- internal_bus&#45;&gt;uart -->
<g id="edge3" class="edge">
<title>internal_bus&#45;&gt;uart</title>
<path fill="none" stroke="#555555" d="M874.94,-178C730.94,-178 441.25,-178 441.25,-178 441.25,-178 441.25,-109.05 441.25,-109.05"/>
<polygon fill="#555555" stroke="#555555" points="444.75,-109.05 441.25,-99.05 437.75,-109.05 444.75,-109.05"/>
<text xml:space="preserve" text-anchor="middle" x="468.25" y="-133.75" font-family="Consolas" font-size="10.00">UART MMIO</text>
</g>
<!-- perf -->
<g id="node5" class="node">
<title>perf</title>
<path fill="#fff4e6" stroke="#555555" d="M676,-0.5C676,-0.5 870.5,-0.5 870.5,-0.5 876.5,-0.5 882.5,-6.5 882.5,-12.5 882.5,-12.5 882.5,-96 882.5,-96 882.5,-102 876.5,-108 870.5,-108 870.5,-108 676,-108 676,-108 670,-108 664,-102 664,-96 664,-96 664,-12.5 664,-12.5 664,-6.5 670,-0.5 676,-0.5"/>
<text xml:space="preserve" text-anchor="middle" x="773.25" y="-93.55" font-family="Consolas" font-size="11.00">0xC0000000 region</text>
<polyline fill="none" stroke="#555555" points="664,-86.5 882.5,-86.5"/>
<text xml:space="preserve" text-anchor="middle" x="773.25" y="-72.05" font-family="Consolas" font-size="11.00">0xC0000000 cycle counter</text>
<polyline fill="none" stroke="#555555" points="664,-65 882.5,-65"/>
<text xml:space="preserve" text-anchor="middle" x="773.25" y="-50.55" font-family="Consolas" font-size="11.00">0xC0000004 instruction counter</text>
<polyline fill="none" stroke="#555555" points="664,-43.5 882.5,-43.5"/>
<text xml:space="preserve" text-anchor="middle" x="773.25" y="-29.05" font-family="Consolas" font-size="11.00">0xC0000008 stall counter</text>
<polyline fill="none" stroke="#555555" points="664,-22 882.5,-22"/>
<text xml:space="preserve" text-anchor="middle" x="773.25" y="-7.55" font-family="Consolas" font-size="11.00">0xC000000C flush counter</text>
</g>
<!-- internal_bus&#45;&gt;perf -->
<g id="edge4" class="edge">
<title>internal_bus&#45;&gt;perf</title>
<path fill="none" stroke="#555555" d="M878.94,-165.47C878.94,-165.47 878.94,-119.77 878.94,-119.77"/>
<polygon fill="#555555" stroke="#555555" points="882.44,-119.77 878.94,-109.77 875.44,-119.77 882.44,-119.77"/>
<text xml:space="preserve" text-anchor="middle" x="800.25" y="-133.75" font-family="Consolas" font-size="10.00">perf MMIO</text>
</g>
<!-- timer_debug -->
<g id="node6" class="node">
<title>timer_debug</title>
<path fill="#fff4e6" stroke="#555555" d="M931,-22C931,-22 1341.5,-22 1341.5,-22 1347.5,-22 1353.5,-28 1353.5,-34 1353.5,-34 1353.5,-74.5 1353.5,-74.5 1353.5,-80.5 1347.5,-86.5 1341.5,-86.5 1341.5,-86.5 931,-86.5 931,-86.5 925,-86.5 919,-80.5 919,-74.5 919,-74.5 919,-34 919,-34 919,-28 925,-22 931,-22"/>
<text xml:space="preserve" text-anchor="middle" x="1136.25" y="-72.05" font-family="Consolas" font-size="11.00">0xC0000010+ region</text>
<polyline fill="none" stroke="#555555" points="919,-65 1353.5,-65"/>
<text xml:space="preserve" text-anchor="middle" x="1136.25" y="-50.55" font-family="Consolas" font-size="11.00">0xC0000010&#45;0xC0000030 + 0xC0000040&#45;0xC000007F debug/trace MMIO</text>
<polyline fill="none" stroke="#555555" points="919,-43.5 1353.5,-43.5"/>
<text xml:space="preserve" text-anchor="middle" x="1136.25" y="-29.05" font-family="Consolas" font-size="11.00">0xC0000200&#45;0xC0000208 timer MMIO</text>
</g>
<!-- internal_bus&#45;&gt;timer_debug -->
<g id="edge5" class="edge">
<title>internal_bus&#45;&gt;timer_debug</title>
<path fill="none" stroke="#555555" d="M976.06,-165.47C976.06,-165.47 976.06,-98.44 976.06,-98.44"/>
<polygon fill="#555555" stroke="#555555" points="979.56,-98.44 976.06,-88.44 972.56,-98.44 979.56,-98.44"/>
<text xml:space="preserve" text-anchor="middle" x="1184.25" y="-133.75" font-family="Consolas" font-size="10.00">timer/debug MMIO</text>
</g>
<!-- multicore_mmio -->
<g id="node7" class="node">
<title>multicore_mmio</title>
<path fill="#fff4e6" stroke="#555555" d="M1401.88,-22C1401.88,-22 1670.62,-22 1670.62,-22 1676.62,-22 1682.62,-28 1682.62,-34 1682.62,-34 1682.62,-74.5 1682.62,-74.5 1682.62,-80.5 1676.62,-86.5 1670.62,-86.5 1670.62,-86.5 1401.88,-86.5 1401.88,-86.5 1395.88,-86.5 1389.88,-80.5 1389.88,-74.5 1389.88,-74.5 1389.88,-34 1389.88,-34 1389.88,-28 1395.88,-22 1401.88,-22"/>
<text xml:space="preserve" text-anchor="middle" x="1536.25" y="-72.05" font-family="Consolas" font-size="11.00">0xC0000400+ region</text>
<polyline fill="none" stroke="#555555" points="1389.88,-65 1682.62,-65"/>
<text xml:space="preserve" text-anchor="middle" x="1536.25" y="-50.55" font-family="Consolas" font-size="11.00">0xC0000410 CORE_ID (read&#45;only)</text>
<polyline fill="none" stroke="#555555" points="1389.88,-43.5 1682.62,-43.5"/>
<text xml:space="preserve" text-anchor="middle" x="1536.25" y="-29.05" font-family="Consolas" font-size="11.00">0xC0000500&#45;0xC000050C Mailbox (dual&#45;core)</text>
</g>
<!-- internal_bus&#45;&gt;multicore_mmio -->
<g id="edge6" class="edge">
<title>internal_bus&#45;&gt;multicore_mmio</title>
<path fill="none" stroke="#555555" d="M1033.35,-178C1192.48,-178 1536.25,-178 1536.25,-178 1536.25,-178 1536.25,-98.28 1536.25,-98.28"/>
<polygon fill="#555555" stroke="#555555" points="1539.75,-98.28 1536.25,-88.28 1532.75,-98.28 1539.75,-98.28"/>
<text xml:space="preserve" text-anchor="middle" x="1578.25" y="-133.75" font-family="Consolas" font-size="10.00">multicore MMIO</text>
</g>
<!-- board_periphs -->
<g id="node8" class="node">
<title>board_periphs</title>
<path fill="#fff4e6" stroke="#555555" d="M1731.12,-32.75C1731.12,-32.75 2013.38,-32.75 2013.38,-32.75 2019.38,-32.75 2025.38,-38.75 2025.38,-44.75 2025.38,-44.75 2025.38,-63.75 2025.38,-63.75 2025.38,-69.75 2019.38,-75.75 2013.38,-75.75 2013.38,-75.75 1731.12,-75.75 1731.12,-75.75 1725.12,-75.75 1719.12,-69.75 1719.12,-63.75 1719.12,-63.75 1719.12,-44.75 1719.12,-44.75 1719.12,-38.75 1725.12,-32.75 1731.12,-32.75"/>
<text xml:space="preserve" text-anchor="middle" x="1872.25" y="-61.3" font-family="Consolas" font-size="11.00">0xD0000000 region</text>
<polyline fill="none" stroke="#555555" points="1719.12,-54.25 2025.38,-54.25"/>
<text xml:space="preserve" text-anchor="middle" x="1872.25" y="-39.8" font-family="Consolas" font-size="11.00">LED control / button&#45;switch / PWM registers</text>
</g>
<!-- internal_bus&#45;&gt;board_periphs -->
<g id="edge7" class="edge">
<title>internal_bus&#45;&gt;board_periphs</title>
<path fill="none" stroke="#555555" d="M1033.31,-190C1255.99,-190 1872.25,-190 1872.25,-190 1872.25,-190 1872.25,-87.57 1872.25,-87.57"/>
<polygon fill="#555555" stroke="#555555" points="1875.75,-87.57 1872.25,-77.57 1868.75,-87.57 1875.75,-87.57"/>
<text xml:space="preserve" text-anchor="middle" x="1902.25" y="-133.75" font-family="Consolas" font-size="10.00">board MMIO</text>
</g>
</g>
</svg>
