<?xml version="1.0" encoding="UTF-8" standalone="no"?>
<!DOCTYPE svg PUBLIC "-//W3C//DTD SVG 1.1//EN"
 "http://www.w3.org/Graphics/SVG/1.1/DTD/svg11.dtd">
<!-- Generated by graphviz version 14.1.3 (20260303.0454)
 -->
<!-- Title: multicore Pages: 1 -->
<svg width="1135pt" height="281pt"
 viewBox="0.00 0.00 1135.00 281.00" xmlns="http://www.w3.org/2000/svg" xmlns:xlink="http://www.w3.org/1999/xlink">
<g id="graph0" class="graph" transform="scale(1 1) rotate(0) translate(4 276.75)">
<title>multicore</title>
<polygon fill="white" stroke="none" points="-4,4 -4,-276.75 1130.75,-276.75 1130.75,4 -4,4"/>
<text xml:space="preserve" text-anchor="middle" x="563.38" y="-249.75" font-family="Times,serif" font-size="20.00">Current Dual&#45;Core Architecture</text>
<!-- core0 -->
<g id="node1" class="node">
<title>core0</title>
<path fill="#f7f7f7" stroke="#555555" d="M159.25,-160.25C159.25,-160.25 12,-160.25 12,-160.25 6,-160.25 0,-154.25 0,-148.25 0,-148.25 0,-123.75 0,-123.75 0,-117.75 6,-111.75 12,-111.75 12,-111.75 159.25,-111.75 159.25,-111.75 165.25,-111.75 171.25,-117.75 171.25,-123.75 171.25,-123.75 171.25,-148.25 171.25,-148.25 171.25,-154.25 165.25,-160.25 159.25,-160.25"/>
<text xml:space="preserve" text-anchor="middle" x="85.62" y="-145.8" font-family="Consolas" font-size="11.00">Core 0 (top.sv)</text>
<text xml:space="preserve" text-anchor="middle" x="85.62" y="-132.3" font-family="Consolas" font-size="11.00">5&#45;stage scalar pipeline</text>
<text xml:space="preserve" text-anchor="middle" x="85.62" y="-118.8" font-family="Consolas" font-size="11.00">CORE_ID = 0</text>
</g>
<!-- mailbox -->
<g id="node3" class="node">
<title>mailbox</title>
<path fill="#fff4e6" stroke="#555555" d="M457.25,-138.25C457.25,-138.25 357.25,-138.25 357.25,-138.25 351.25,-138.25 345.25,-132.25 345.25,-126.25 345.25,-126.25 345.25,-101.75 345.25,-101.75 345.25,-95.75 351.25,-89.75 357.25,-89.75 357.25,-89.75 457.25,-89.75 457.25,-89.75 463.25,-89.75 469.25,-95.75 469.25,-101.75 469.25,-101.75 469.25,-126.25 469.25,-126.25 469.25,-132.25 463.25,-138.25 457.25,-138.25"/>
<text xml:space="preserve" text-anchor="middle" x="407.25" y="-123.8" font-family="Consolas" font-size="11.00">IPC Mailbox</text>
<text xml:space="preserve" text-anchor="middle" x="407.25" y="-110.3" font-family="Consolas" font-size="11.00">ipc_mailbox.sv</text>
<text xml:space="preserve" text-anchor="middle" x="407.25" y="-96.8" font-family="Consolas" font-size="11.00">Base: 0xC0000500</text>
</g>
<!-- core0&#45;&gt;mailbox -->
<g id="edge1" class="edge">
<title>core0&#45;&gt;mailbox</title>
<path fill="none" stroke="#555555" d="M171.39,-120.58C171.39,-120.58 333.37,-120.58 333.37,-120.58"/>
<polygon fill="#555555" stroke="#555555" points="333.38,-124.08 343.37,-120.58 333.37,-117.08 333.38,-124.08"/>
<text xml:space="preserve" text-anchor="middle" x="258.25" y="-101.25" font-family="Consolas" font-size="10.00">mbx_addr/wdata/we</text>
</g>
<!-- uart_mux -->
<g id="node4" class="node">
<title>uart_mux</title>
<path fill="#fff4e6" stroke="#555555" d="M1114.75,-220C1114.75,-220 994.5,-220 994.5,-220 988.5,-220 982.5,-214 982.5,-208 982.5,-208 982.5,-196 982.5,-196 982.5,-190 988.5,-184 994.5,-184 994.5,-184 1114.75,-184 1114.75,-184 1120.75,-184 1126.75,-190 1126.75,-196 1126.75,-196 1126.75,-208 1126.75,-208 1126.75,-214 1120.75,-220 1114.75,-220"/>
<text xml:space="preserve" text-anchor="middle" x="1054.62" y="-205.05" font-family="Consolas" font-size="11.00">UART TX Multiplexer</text>
<text xml:space="preserve" text-anchor="middle" x="1054.62" y="-191.55" font-family="Consolas" font-size="11.00">Shared output</text>
</g>
<!-- core0&#45;&gt;uart_mux -->
<g id="edge5" class="edge">
<title>core0&#45;&gt;uart_mux</title>
<path fill="none" stroke="#555555" d="M171.46,-152.92C401.72,-152.92 1015.75,-152.92 1015.75,-152.92 1015.75,-152.92 1015.75,-172.21 1015.75,-172.21"/>
<polygon fill="#555555" stroke="#555555" points="1012.25,-172.21 1015.75,-182.21 1019.25,-172.21 1012.25,-172.21"/>
<text xml:space="preserve" text-anchor="middle" x="556.25" y="-231.25" font-family="Consolas" font-size="10.00">uart_tx, tx_busy</text>
</g>
<!-- halt_logic -->
<g id="node5" class="node">
<title>halt_logic</title>
<path fill="#f1f8e9" stroke="#555555" d="M1108,-92.25C1108,-92.25 1001.25,-92.25 1001.25,-92.25 995.25,-92.25 989.25,-86.25 989.25,-80.25 989.25,-80.25 989.25,-55.75 989.25,-55.75 989.25,-49.75 995.25,-43.75 1001.25,-43.75 1001.25,-43.75 1108,-43.75 1108,-43.75 1114,-43.75 1120,-49.75 1120,-55.75 1120,-55.75 1120,-80.25 1120,-80.25 1120,-86.25 1114,-92.25 1108,-92.25"/>
<text xml:space="preserve" text-anchor="middle" x="1054.62" y="-77.8" font-family="Consolas" font-size="11.00">Halt Logic</text>
<text xml:space="preserve" text-anchor="middle" x="1054.62" y="-64.3" font-family="Consolas" font-size="11.00">led[0]=core0_halt</text>
<text xml:space="preserve" text-anchor="middle" x="1054.62" y="-50.8" font-family="Consolas" font-size="11.00">led[1]=core1_halt</text>
</g>
<!-- core0&#45;&gt;halt_logic -->
<g id="edge7" class="edge">
<title>core0&#45;&gt;halt_logic</title>
<path fill="none" stroke="#555555" d="M171.58,-145.58C415.37,-145.58 1093.75,-145.58 1093.75,-145.58 1093.75,-145.58 1093.75,-104.06 1093.75,-104.06"/>
<polygon fill="#555555" stroke="#555555" points="1097.25,-104.06 1093.75,-94.06 1090.25,-104.06 1097.25,-104.06"/>
<text xml:space="preserve" text-anchor="middle" x="556.25" y="-3.25" font-family="Consolas" font-size="10.00">halt</text>
</g>
<!-- core1 -->
<g id="node2" class="node">
<title>core1</title>
<path fill="#f7f7f7" stroke="#555555" d="M802.5,-138.25C802.5,-138.25 655.25,-138.25 655.25,-138.25 649.25,-138.25 643.25,-132.25 643.25,-126.25 643.25,-126.25 643.25,-101.75 643.25,-101.75 643.25,-95.75 649.25,-89.75 655.25,-89.75 655.25,-89.75 802.5,-89.75 802.5,-89.75 808.5,-89.75 814.5,-95.75 814.5,-101.75 814.5,-101.75 814.5,-126.25 814.5,-126.25 814.5,-132.25 808.5,-138.25 802.5,-138.25"/>
<text xml:space="preserve" text-anchor="middle" x="728.88" y="-123.8" font-family="Consolas" font-size="11.00">Core 1 (top.sv)</text>
<text xml:space="preserve" text-anchor="middle" x="728.88" y="-110.3" font-family="Consolas" font-size="11.00">5&#45;stage scalar pipeline</text>
<text xml:space="preserve" text-anchor="middle" x="728.88" y="-96.8" font-family="Consolas" font-size="11.00">CORE_ID = 1</text>
</g>
<!-- core1&#45;&gt;mailbox -->
<g id="edge2" class="edge">
<title>core1&#45;&gt;mailbox</title>
<path fill="none" stroke="#555555" d="M643.11,-105.92C643.11,-105.92 481.13,-105.92 481.13,-105.92"/>
<polygon fill="#555555" stroke="#555555" points="481.13,-102.42 471.13,-105.92 481.12,-109.42 481.13,-102.42"/>
<text xml:space="preserve" text-anchor="middle" x="556.25" y="-155.25" font-family="Consolas" font-size="10.00">mbx_addr/wdata/we</text>
</g>
<!-- core1&#45;&gt;uart_mux -->
<g id="edge6" class="edge">
<title>core1&#45;&gt;uart_mux</title>
<path fill="none" stroke="#555555" d="M814.78,-122.92C907.41,-122.92 1041.75,-122.92 1041.75,-122.92 1041.75,-122.92 1041.75,-172.14 1041.75,-172.14"/>
<polygon fill="#555555" stroke="#555555" points="1038.25,-172.14 1041.75,-182.14 1045.25,-172.14 1038.25,-172.14"/>
<text xml:space="preserve" text-anchor="middle" x="898.5" y="-180.25" font-family="Consolas" font-size="10.00">uart_tx, tx_busy</text>
</g>
<!-- core1&#45;&gt;halt_logic -->
<g id="edge8" class="edge">
<title>core1&#45;&gt;halt_logic</title>
<path fill="none" stroke="#555555" d="M814.83,-107.58C915.22,-107.58 1067.75,-107.58 1067.75,-107.58 1067.75,-107.58 1067.75,-103.91 1067.75,-103.91"/>
<polygon fill="#555555" stroke="#555555" points="1071.25,-103.91 1067.75,-93.91 1064.25,-103.91 1071.25,-103.91"/>
<text xml:space="preserve" text-anchor="middle" x="898.5" y="-101.25" font-family="Consolas" font-size="10.00">halt</text>
</g>
<!-- mailbox&#45;&gt;core0 -->
<g id="edge3" class="edge">
<title>mailbox&#45;&gt;core0</title>
<path fill="none" stroke="#555555" d="M344.86,-129.42C344.86,-129.42 183.08,-129.42 183.08,-129.42"/>
<polygon fill="#555555" stroke="#555555" points="183.08,-125.92 173.08,-129.42 183.08,-132.92 183.08,-125.92"/>
<text xml:space="preserve" text-anchor="middle" x="258.25" y="-177.25" font-family="Consolas" font-size="10.00">mbx_rdata/valid</text>
</g>
<!-- mailbox&#45;&gt;core1 -->
<g id="edge4" class="edge">
<title>mailbox&#45;&gt;core1</title>
<path fill="none" stroke="#555555" d="M469.64,-122.08C469.64,-122.08 631.42,-122.08 631.42,-122.08"/>
<polygon fill="#555555" stroke="#555555" points="631.42,-125.58 641.42,-122.08 631.42,-118.58 631.42,-125.58"/>
<text xml:space="preserve" text-anchor="middle" x="556.25" y="-79.25" font-family="Consolas" font-size="10.00">mbx_rdata/valid</text>
</g>
</g>
</svg>
