<?xml version="1.0" encoding="UTF-8" standalone="no"?>
<!DOCTYPE svg PUBLIC "-//W3C//DTD SVG 1.1//EN"
 "http://www.w3.org/Graphics/SVG/1.1/DTD/svg11.dtd">
<!-- Generated by graphviz version 14.1.3 (20260303.0454)
 -->
<!-- Title: pipeline Pages: 1 -->
<svg width="3003pt" height="573pt"
 viewBox="0.00 0.00 3003.00 573.00" xmlns="http://www.w3.org/2000/svg" xmlns:xlink="http://www.w3.org/1999/xlink">
<g id="graph0" class="graph" transform="scale(1 1) rotate(0) translate(4 569)">
<title>pipeline</title>
<polygon fill="white" stroke="none" points="-4,4 -4,-569 2998.75,-569 2998.75,4 -4,4"/>
<text xml:space="preserve" text-anchor="middle" x="1497.38" y="-542" font-family="Times,serif" font-size="20.00">Current 5&#45;Stage Pipeline Architecture</text>
<g id="clust1" class="cluster">
<title>cluster_cpu</title>
<polygon fill="none" stroke="#bbbbbb" points="232.25,-263.25 232.25,-472.25 2986.75,-472.25 2986.75,-263.25 232.25,-263.25"/>
<text xml:space="preserve" text-anchor="middle" x="1609.5" y="-449.25" font-family="Times,serif" font-size="20.00">top.sv CPU core</text>
</g>
<!-- if_stage -->
<g id="node1" class="node">
<title>if_stage</title>
<path fill="#f7f7f7" stroke="#555555" d="M440,-426.5C440,-426.5 252.25,-426.5 252.25,-426.5 246.25,-426.5 240.25,-420.5 240.25,-414.5 240.25,-414.5 240.25,-390 240.25,-390 240.25,-384 246.25,-378 252.25,-378 252.25,-378 440,-378 440,-378 446,-378 452,-384 452,-390 452,-390 452,-414.5 452,-414.5 452,-420.5 446,-426.5 440,-426.5"/>
<text xml:space="preserve" text-anchor="middle" x="346.12" y="-412.05" font-family="Consolas" font-size="11.00">IF</text>
<text xml:space="preserve" text-anchor="middle" x="346.12" y="-398.55" font-family="Consolas" font-size="11.00">if_stage.sv</text>
<text xml:space="preserve" text-anchor="middle" x="346.12" y="-385.05" font-family="Consolas" font-size="11.00">PC update + instruction fetch</text>
</g>
<!-- if_id -->
<g id="node2" class="node">
<title>if_id</title>
<path fill="#f7f7f7" stroke="#555555" d="M583.75,-329.25C583.75,-329.25 531,-329.25 531,-329.25 525,-329.25 519,-323.25 519,-317.25 519,-317.25 519,-305.25 519,-305.25 519,-299.25 525,-293.25 531,-293.25 531,-293.25 583.75,-293.25 583.75,-293.25 589.75,-293.25 595.75,-299.25 595.75,-305.25 595.75,-305.25 595.75,-317.25 595.75,-317.25 595.75,-323.25 589.75,-329.25 583.75,-329.25"/>
<text xml:space="preserve" text-anchor="middle" x="557.38" y="-314.3" font-family="Consolas" font-size="11.00">IF/ID</text>
<text xml:space="preserve" text-anchor="middle" x="557.38" y="-300.8" font-family="Consolas" font-size="11.00">if_id_reg</text>
</g>
<!-- if_stage&#45;&gt;if_id -->
<g id="edge1" class="edge">
<title>if_stage&#45;&gt;if_id</title>
<path fill="none" stroke="#555555" d="M452.25,-394.17C505.05,-394.17 557.75,-394.17 557.75,-394.17 557.75,-394.17 557.75,-341.17 557.75,-341.17"/>
<polygon fill="#555555" stroke="#555555" points="561.25,-341.17 557.75,-331.17 554.25,-341.17 561.25,-341.17"/>
</g>
<!-- id_stage -->
<g id="node3" class="node">
<title>id_stage</title>
<path fill="#f7f7f7" stroke="#555555" d="M938.75,-319.5C938.75,-319.5 703.75,-319.5 703.75,-319.5 697.75,-319.5 691.75,-313.5 691.75,-307.5 691.75,-307.5 691.75,-283 691.75,-283 691.75,-277 697.75,-271 703.75,-271 703.75,-271 938.75,-271 938.75,-271 944.75,-271 950.75,-277 950.75,-283 950.75,-283 950.75,-307.5 950.75,-307.5 950.75,-313.5 944.75,-319.5 938.75,-319.5"/>
<text xml:space="preserve" text-anchor="middle" x="821.25" y="-305.05" font-family="Consolas" font-size="11.00">ID</text>
<text xml:space="preserve" text-anchor="middle" x="821.25" y="-291.55" font-family="Consolas" font-size="11.00">id_stage.sv</text>
<text xml:space="preserve" text-anchor="middle" x="821.25" y="-278.05" font-family="Consolas" font-size="11.00">control + register read + immediates</text>
</g>
<!-- if_id&#45;&gt;id_stage -->
<g id="edge2" class="edge">
<title>if_id&#45;&gt;id_stage</title>
<path fill="none" stroke="#555555" d="M596.03,-306.38C596.03,-306.38 679.78,-306.38 679.78,-306.38"/>
<polygon fill="#555555" stroke="#555555" points="679.78,-309.88 689.78,-306.38 679.78,-302.88 679.78,-309.88"/>
</g>
<!-- id_ex -->
<g id="node4" class="node">
<title>id_ex</title>
<path fill="#f7f7f7" stroke="#555555" d="M1152,-315.25C1152,-315.25 1099.25,-315.25 1099.25,-315.25 1093.25,-315.25 1087.25,-309.25 1087.25,-303.25 1087.25,-303.25 1087.25,-291.25 1087.25,-291.25 1087.25,-285.25 1093.25,-279.25 1099.25,-279.25 1099.25,-279.25 1152,-279.25 1152,-279.25 1158,-279.25 1164,-285.25 1164,-291.25 1164,-291.25 1164,-303.25 1164,-303.25 1164,-309.25 1158,-315.25 1152,-315.25"/>
<text xml:space="preserve" text-anchor="middle" x="1125.62" y="-300.3" font-family="Consolas" font-size="11.00">ID/EX</text>
<text xml:space="preserve" text-anchor="middle" x="1125.62" y="-286.8" font-family="Consolas" font-size="11.00">id_ex_reg</text>
</g>
<!-- id_stage&#45;&gt;id_ex -->
<g id="edge3" class="edge">
<title>id_stage&#45;&gt;id_ex</title>
<path fill="none" stroke="#555555" d="M951.22,-297.25C951.22,-297.25 1075.47,-297.25 1075.47,-297.25"/>
<polygon fill="#555555" stroke="#555555" points="1075.47,-300.75 1085.47,-297.25 1075.47,-293.75 1075.47,-300.75"/>
</g>
<!-- ex_stage -->
<g id="node5" class="node">
<title>ex_stage</title>
<path fill="#f7f7f7" stroke="#555555" d="M1564,-319.5C1564,-319.5 1396.5,-319.5 1396.5,-319.5 1390.5,-319.5 1384.5,-313.5 1384.5,-307.5 1384.5,-307.5 1384.5,-283 1384.5,-283 1384.5,-277 1390.5,-271 1396.5,-271 1396.5,-271 1564,-271 1564,-271 1570,-271 1576,-277 1576,-283 1576,-283 1576,-307.5 1576,-307.5 1576,-313.5 1570,-319.5 1564,-319.5"/>
<text xml:space="preserve" text-anchor="middle" x="1480.25" y="-305.05" font-family="Consolas" font-size="11.00">EX</text>
<text xml:space="preserve" text-anchor="middle" x="1480.25" y="-291.55" font-family="Consolas" font-size="11.00">ex_stage.sv</text>
<text xml:space="preserve" text-anchor="middle" x="1480.25" y="-278.05" font-family="Consolas" font-size="11.00">ALU + branch/jump decision</text>
</g>
<!-- id_ex&#45;&gt;ex_stage -->
<g id="edge4" class="edge">
<title>id_ex&#45;&gt;ex_stage</title>
<path fill="none" stroke="#555555" d="M1164.25,-297.25C1164.25,-297.25 1372.51,-297.25 1372.51,-297.25"/>
<polygon fill="#555555" stroke="#555555" points="1372.51,-300.75 1382.51,-297.25 1372.51,-293.75 1372.51,-300.75"/>
</g>
<!-- ex_stage&#45;&gt;if_stage -->
<g id="edge23" class="edge">
<title>ex_stage&#45;&gt;if_stage</title>
<path fill="none" stroke="#555555" d="M1479.75,-319.94C1479.75,-353.75 1479.75,-410.33 1479.75,-410.33 1479.75,-410.33 463.78,-410.33 463.78,-410.33"/>
<polygon fill="#555555" stroke="#555555" points="463.78,-406.83 453.78,-410.33 463.78,-413.83 463.78,-406.83"/>
<text xml:space="preserve" text-anchor="middle" x="821.25" y="-422.5" font-family="Consolas" font-size="10.00">branch_target</text>
</g>
<!-- ex_mem -->
<g id="node6" class="node">
<title>ex_mem</title>
<path fill="#f7f7f7" stroke="#555555" d="M1795.5,-313.25C1795.5,-313.25 1736,-313.25 1736,-313.25 1730,-313.25 1724,-307.25 1724,-301.25 1724,-301.25 1724,-289.25 1724,-289.25 1724,-283.25 1730,-277.25 1736,-277.25 1736,-277.25 1795.5,-277.25 1795.5,-277.25 1801.5,-277.25 1807.5,-283.25 1807.5,-289.25 1807.5,-289.25 1807.5,-301.25 1807.5,-301.25 1807.5,-307.25 1801.5,-313.25 1795.5,-313.25"/>
<text xml:space="preserve" text-anchor="middle" x="1765.75" y="-298.3" font-family="Consolas" font-size="11.00">EX/MEM</text>
<text xml:space="preserve" text-anchor="middle" x="1765.75" y="-284.8" font-family="Consolas" font-size="11.00">ex_mem_reg</text>
</g>
<!-- ex_stage&#45;&gt;ex_mem -->
<g id="edge5" class="edge">
<title>ex_stage&#45;&gt;ex_mem</title>
<path fill="none" stroke="#555555" d="M1576.11,-295.25C1576.11,-295.25 1712.05,-295.25 1712.05,-295.25"/>
<polygon fill="#555555" stroke="#555555" points="1712.05,-298.75 1722.05,-295.25 1712.05,-291.75 1712.05,-298.75"/>
</g>
<!-- flush_ctl -->
<g id="node18" class="node">
<title>flush_ctl</title>
<path fill="#f1f8e9" stroke="#555555" d="M874.62,-221.25C874.62,-221.25 767.88,-221.25 767.88,-221.25 761.88,-221.25 755.88,-215.25 755.88,-209.25 755.88,-209.25 755.88,-197.25 755.88,-197.25 755.88,-191.25 761.88,-185.25 767.88,-185.25 767.88,-185.25 874.62,-185.25 874.62,-185.25 880.62,-185.25 886.62,-191.25 886.62,-197.25 886.62,-197.25 886.62,-209.25 886.62,-209.25 886.62,-215.25 880.62,-221.25 874.62,-221.25"/>
<text xml:space="preserve" text-anchor="middle" x="821.25" y="-206.3" font-family="Consolas" font-size="11.00">Branch/jump flush</text>
<text xml:space="preserve" text-anchor="middle" x="821.25" y="-192.8" font-family="Consolas" font-size="11.00">flush = pc_sel</text>
</g>
<!-- ex_stage&#45;&gt;flush_ctl -->
<g id="edge22" class="edge">
<title>ex_stage&#45;&gt;flush_ctl</title>
<path fill="none" stroke="#555555" d="M1479.75,-270.55C1479.75,-242.7 1479.75,-201.25 1479.75,-201.25 1479.75,-201.25 898.61,-201.25 898.61,-201.25"/>
<polygon fill="#555555" stroke="#555555" points="898.61,-197.75 888.61,-201.25 898.61,-204.75 898.61,-197.75"/>
<text xml:space="preserve" text-anchor="middle" x="1125.62" y="-206.5" font-family="Consolas" font-size="10.00">pc_sel</text>
</g>
<!-- mem_stage -->
<g id="node7" class="node">
<title>mem_stage</title>
<path fill="#f7f7f7" stroke="#555555" d="M2242.75,-319.5C2242.75,-319.5 2068.5,-319.5 2068.5,-319.5 2062.5,-319.5 2056.5,-313.5 2056.5,-307.5 2056.5,-307.5 2056.5,-283 2056.5,-283 2056.5,-277 2062.5,-271 2068.5,-271 2068.5,-271 2242.75,-271 2242.75,-271 2248.75,-271 2254.75,-277 2254.75,-283 2254.75,-283 2254.75,-307.5 2254.75,-307.5 2254.75,-313.5 2248.75,-319.5 2242.75,-319.5"/>
<text xml:space="preserve" text-anchor="middle" x="2155.62" y="-305.05" font-family="Consolas" font-size="11.00">MEM</text>
<text xml:space="preserve" text-anchor="middle" x="2155.62" y="-291.55" font-family="Consolas" font-size="11.00">mem_stage.sv</text>
<text xml:space="preserve" text-anchor="middle" x="2155.62" y="-278.05" font-family="Consolas" font-size="11.00">RAM + UART + Perf + Mailbox</text>
</g>
<!-- ex_mem&#45;&gt;mem_stage -->
<g id="edge6" class="edge">
<title>ex_mem&#45;&gt;mem_stage</title>
<path fill="none" stroke="#555555" d="M1807.84,-301.25C1807.84,-301.25 2044.59,-301.25 2044.59,-301.25"/>
<polygon fill="#555555" stroke="#555555" points="2044.59,-304.75 2054.59,-301.25 2044.59,-297.75 2044.59,-304.75"/>
</g>
<!-- mem_wb -->
<g id="node8" class="node">
<title>mem_wb</title>
<path fill="#f7f7f7" stroke="#555555" d="M2521.25,-319.25C2521.25,-319.25 2461.75,-319.25 2461.75,-319.25 2455.75,-319.25 2449.75,-313.25 2449.75,-307.25 2449.75,-307.25 2449.75,-295.25 2449.75,-295.25 2449.75,-289.25 2455.75,-283.25 2461.75,-283.25 2461.75,-283.25 2521.25,-283.25 2521.25,-283.25 2527.25,-283.25 2533.25,-289.25 2533.25,-295.25 2533.25,-295.25 2533.25,-307.25 2533.25,-307.25 2533.25,-313.25 2527.25,-319.25 2521.25,-319.25"/>
<text xml:space="preserve" text-anchor="middle" x="2491.5" y="-304.3" font-family="Consolas" font-size="11.00">MEM/WB</text>
<text xml:space="preserve" text-anchor="middle" x="2491.5" y="-290.8" font-family="Consolas" font-size="11.00">mem_wb_reg</text>
</g>
<!-- mem_stage&#45;&gt;mem_wb -->
<g id="edge7" class="edge">
<title>mem_stage&#45;&gt;mem_wb</title>
<path fill="none" stroke="#555555" d="M2255.04,-301.25C2255.04,-301.25 2437.98,-301.25 2437.98,-301.25"/>
<polygon fill="#555555" stroke="#555555" points="2437.98,-304.75 2447.98,-301.25 2437.98,-297.75 2437.98,-304.75"/>
</g>
<!-- data_ram -->
<g id="node12" class="node">
<title>data_ram</title>
<path fill="#edf6ff" stroke="#555555" d="M2528,-147.5C2528,-147.5 2455,-147.5 2455,-147.5 2449,-147.5 2443,-141.5 2443,-135.5 2443,-135.5 2443,-111 2443,-111 2443,-105 2449,-99 2455,-99 2455,-99 2528,-99 2528,-99 2534,-99 2540,-105 2540,-111 2540,-111 2540,-135.5 2540,-135.5 2540,-141.5 2534,-147.5 2528,-147.5"/>
<text xml:space="preserve" text-anchor="middle" x="2491.5" y="-133.05" font-family="Consolas" font-size="11.00">Data RAM</text>
<text xml:space="preserve" text-anchor="middle" x="2491.5" y="-119.55" font-family="Consolas" font-size="11.00">data_mem.sv</text>
<text xml:space="preserve" text-anchor="middle" x="2491.5" y="-106.05" font-family="Consolas" font-size="11.00">byte enables</text>
</g>
<!-- mem_stage&#45;&gt;data_ram -->
<g id="edge12" class="edge">
<title>mem_stage&#45;&gt;data_ram</title>
<path fill="none" stroke="#555555" d="M2188.75,-270.55C2188.75,-223.43 2188.75,-125.38 2188.75,-125.38 2188.75,-125.38 2431.01,-125.38 2431.01,-125.38"/>
<polygon fill="#555555" stroke="#555555" points="2431.01,-128.88 2441.01,-125.38 2431.01,-121.88 2431.01,-128.88"/>
<text xml:space="preserve" text-anchor="middle" x="2338.75" y="-126.5" font-family="Consolas" font-size="10.00">load/store</text>
</g>
<!-- uart -->
<g id="node13" class="node">
<title>uart</title>
<path fill="#fff4e6" stroke="#555555" d="M2548.25,-48.5C2548.25,-48.5 2434.75,-48.5 2434.75,-48.5 2428.75,-48.5 2422.75,-42.5 2422.75,-36.5 2422.75,-36.5 2422.75,-12 2422.75,-12 2422.75,-6 2428.75,0 2434.75,0 2434.75,0 2548.25,0 2548.25,0 2554.25,0 2560.25,-6 2560.25,-12 2560.25,-12 2560.25,-36.5 2560.25,-36.5 2560.25,-42.5 2554.25,-48.5 2548.25,-48.5"/>
<text xml:space="preserve" text-anchor="middle" x="2491.5" y="-34.05" font-family="Consolas" font-size="11.00">UART MMIO</text>
<text xml:space="preserve" text-anchor="middle" x="2491.5" y="-20.55" font-family="Consolas" font-size="11.00">uart_peripheral.sv</text>
<text xml:space="preserve" text-anchor="middle" x="2491.5" y="-7.05" font-family="Consolas" font-size="11.00">uart_tx + uart_rx</text>
</g>
<!-- mem_stage&#45;&gt;uart -->
<g id="edge13" class="edge">
<title>mem_stage&#45;&gt;uart</title>
<path fill="none" stroke="#555555" d="M2122.75,-270.72C2122.75,-204.01 2122.75,-24.25 2122.75,-24.25 2122.75,-24.25 2411.06,-24.25 2411.06,-24.25"/>
<polygon fill="#555555" stroke="#555555" points="2411.06,-27.75 2421.06,-24.25 2411.06,-20.75 2411.06,-27.75"/>
<text xml:space="preserve" text-anchor="middle" x="2338.75" y="-27.5" font-family="Consolas" font-size="10.00">0x80000000 region</text>
</g>
<!-- mailbox -->
<g id="node15" class="node">
<title>mailbox</title>
<path fill="#fff4e6" stroke="#555555" d="M2544.88,-233.25C2544.88,-233.25 2438.12,-233.25 2438.12,-233.25 2432.12,-233.25 2426.12,-227.25 2426.12,-221.25 2426.12,-221.25 2426.12,-209.25 2426.12,-209.25 2426.12,-203.25 2432.12,-197.25 2438.12,-197.25 2438.12,-197.25 2544.88,-197.25 2544.88,-197.25 2550.88,-197.25 2556.88,-203.25 2556.88,-209.25 2556.88,-209.25 2556.88,-221.25 2556.88,-221.25 2556.88,-227.25 2550.88,-233.25 2544.88,-233.25"/>
<text xml:space="preserve" text-anchor="middle" x="2491.5" y="-218.3" font-family="Consolas" font-size="11.00">Mailbox Interface</text>
<text xml:space="preserve" text-anchor="middle" x="2491.5" y="-204.8" font-family="Consolas" font-size="11.00">To dual_core_top</text>
</g>
<!-- mem_stage&#45;&gt;mailbox -->
<g id="edge15" class="edge">
<title>mem_stage&#45;&gt;mailbox</title>
<path fill="none" stroke="#555555" d="M2255.09,-277.12C2336.32,-277.12 2437.75,-277.12 2437.75,-277.12 2437.75,-277.12 2437.75,-244.99 2437.75,-244.99"/>
<polygon fill="#555555" stroke="#555555" points="2441.25,-244.99 2437.75,-234.99 2434.25,-244.99 2441.25,-244.99"/>
<text xml:space="preserve" text-anchor="middle" x="2338.75" y="-218.5" font-family="Consolas" font-size="10.00">0xC0000500 region</text>
</g>
<!-- wb_stage -->
<g id="node9" class="node">
<title>wb_stage</title>
<path fill="#f7f7f7" stroke="#555555" d="M2719,-319.5C2719,-319.5 2639.25,-319.5 2639.25,-319.5 2633.25,-319.5 2627.25,-313.5 2627.25,-307.5 2627.25,-307.5 2627.25,-283 2627.25,-283 2627.25,-277 2633.25,-271 2639.25,-271 2639.25,-271 2719,-271 2719,-271 2725,-271 2731,-277 2731,-283 2731,-283 2731,-307.5 2731,-307.5 2731,-313.5 2725,-319.5 2719,-319.5"/>
<text xml:space="preserve" text-anchor="middle" x="2679.12" y="-305.05" font-family="Consolas" font-size="11.00">WB</text>
<text xml:space="preserve" text-anchor="middle" x="2679.12" y="-291.55" font-family="Consolas" font-size="11.00">wb_stage.sv</text>
<text xml:space="preserve" text-anchor="middle" x="2679.12" y="-278.05" font-family="Consolas" font-size="11.00">writeback mux</text>
</g>
<!-- mem_wb&#45;&gt;wb_stage -->
<g id="edge8" class="edge">
<title>mem_wb&#45;&gt;wb_stage</title>
<path fill="none" stroke="#555555" d="M2533.61,-301.25C2533.61,-301.25 2615.25,-301.25 2615.25,-301.25"/>
<polygon fill="#555555" stroke="#555555" points="2615.25,-304.75 2625.25,-301.25 2615.25,-297.75 2615.25,-304.75"/>
</g>
<!-- reg_file -->
<g id="node10" class="node">
<title>reg_file</title>
<path fill="#f7f7f7" stroke="#555555" d="M2966.75,-371.25C2966.75,-371.25 2887,-371.25 2887,-371.25 2881,-371.25 2875,-365.25 2875,-359.25 2875,-359.25 2875,-347.25 2875,-347.25 2875,-341.25 2881,-335.25 2887,-335.25 2887,-335.25 2966.75,-335.25 2966.75,-335.25 2972.75,-335.25 2978.75,-341.25 2978.75,-347.25 2978.75,-347.25 2978.75,-359.25 2978.75,-359.25 2978.75,-365.25 2972.75,-371.25 2966.75,-371.25"/>
<text xml:space="preserve" text-anchor="middle" x="2926.88" y="-356.3" font-family="Consolas" font-size="11.00">Register file</text>
<text xml:space="preserve" text-anchor="middle" x="2926.88" y="-342.8" font-family="Consolas" font-size="11.00">reg_file.sv</text>
</g>
<!-- wb_stage&#45;&gt;reg_file -->
<g id="edge9" class="edge">
<title>wb_stage&#45;&gt;reg_file</title>
<path fill="none" stroke="#555555" d="M2678.75,-319.85C2678.75,-335.66 2678.75,-353.25 2678.75,-353.25 2678.75,-353.25 2863.04,-353.25 2863.04,-353.25"/>
<polygon fill="#555555" stroke="#555555" points="2863.04,-356.75 2873.04,-353.25 2863.04,-349.75 2863.04,-356.75"/>
<text xml:space="preserve" text-anchor="middle" x="2803" y="-339.5" font-family="Consolas" font-size="10.00">wb_write_data</text>
</g>
<!-- reg_file&#45;&gt;id_stage -->
<g id="edge10" class="edge">
<title>reg_file&#45;&gt;id_stage</title>
<path fill="none" stroke="#555555" d="M2874.55,-362.25C2549.56,-362.25 820.75,-362.25 820.75,-362.25 820.75,-362.25 820.75,-331.33 820.75,-331.33"/>
<polygon fill="#555555" stroke="#555555" points="824.25,-331.33 820.75,-321.33 817.25,-331.33 824.25,-331.33"/>
<text xml:space="preserve" text-anchor="middle" x="1972.5" y="-373.5" font-family="Consolas" font-size="10.00">rs1/rs2 data</text>
</g>
<!-- instr_rom -->
<g id="node11" class="node">
<title>instr_rom</title>
<path fill="#edf6ff" stroke="#555555" d="M132.25,-295.5C132.25,-295.5 12,-295.5 12,-295.5 6,-295.5 0,-289.5 0,-283.5 0,-283.5 0,-259 0,-259 0,-253 6,-247 12,-247 12,-247 132.25,-247 132.25,-247 138.25,-247 144.25,-253 144.25,-259 144.25,-259 144.25,-283.5 144.25,-283.5 144.25,-289.5 138.25,-295.5 132.25,-295.5"/>
<text xml:space="preserve" text-anchor="middle" x="72.12" y="-281.05" font-family="Consolas" font-size="11.00">Instruction ROM</text>
<text xml:space="preserve" text-anchor="middle" x="72.12" y="-267.55" font-family="Consolas" font-size="11.00">instr_mem.sv</text>
<text xml:space="preserve" text-anchor="middle" x="72.12" y="-254.05" font-family="Consolas" font-size="11.00">240 generated words</text>
</g>
<!-- instr_rom&#45;&gt;if_stage -->
<g id="edge11" class="edge">
<title>instr_rom&#45;&gt;if_stage</title>
<path fill="none" stroke="#555555" d="M138.75,-295.95C138.75,-332.37 138.75,-396.25 138.75,-396.25 138.75,-396.25 228.49,-396.25 228.49,-396.25"/>
<polygon fill="#555555" stroke="#555555" points="228.49,-399.75 238.49,-396.25 228.49,-392.75 228.49,-399.75"/>
<text xml:space="preserve" text-anchor="middle" x="192.25" y="-274.5" font-family="Consolas" font-size="10.00">instr</text>
</g>
<!-- perf -->
<g id="node14" class="node">
<title>perf</title>
<path fill="#fff4e6" stroke="#555555" d="M1876.5,-227.25C1876.5,-227.25 1655,-227.25 1655,-227.25 1649,-227.25 1643,-221.25 1643,-215.25 1643,-215.25 1643,-203.25 1643,-203.25 1643,-197.25 1649,-191.25 1655,-191.25 1655,-191.25 1876.5,-191.25 1876.5,-191.25 1882.5,-191.25 1888.5,-197.25 1888.5,-203.25 1888.5,-203.25 1888.5,-215.25 1888.5,-215.25 1888.5,-221.25 1882.5,-227.25 1876.5,-227.25"/>
<text xml:space="preserve" text-anchor="middle" x="1765.75" y="-212.3" font-family="Consolas" font-size="11.00">Performance counters</text>
<text xml:space="preserve" text-anchor="middle" x="1765.75" y="-198.8" font-family="Consolas" font-size="11.00">cycles / instrs / stalls / flushes</text>
</g>
<!-- perf&#45;&gt;mem_stage -->
<g id="edge14" class="edge">
<title>perf&#45;&gt;mem_stage</title>
<path fill="none" stroke="#555555" d="M1847.75,-227.4C1847.75,-251.01 1847.75,-289.25 1847.75,-289.25 1847.75,-289.25 2044.58,-289.25 2044.58,-289.25"/>
<polygon fill="#555555" stroke="#555555" points="2044.58,-292.75 2054.58,-289.25 2044.58,-285.75 2044.58,-292.75"/>
<text xml:space="preserve" text-anchor="middle" x="1972.5" y="-212.5" font-family="Consolas" font-size="10.00">0xC0000000 region</text>
</g>
<!-- hazard -->
<g id="node16" class="node">
<title>hazard</title>
<path fill="#f1f8e9" stroke="#555555" d="M122.12,-420.25C122.12,-420.25 22.12,-420.25 22.12,-420.25 16.12,-420.25 10.12,-414.25 10.12,-408.25 10.12,-408.25 10.12,-396.25 10.12,-396.25 10.12,-390.25 16.12,-384.25 22.12,-384.25 22.12,-384.25 122.12,-384.25 122.12,-384.25 128.12,-384.25 134.12,-390.25 134.12,-396.25 134.12,-396.25 134.12,-408.25 134.12,-408.25 134.12,-414.25 128.12,-420.25 122.12,-420.25"/>
<text xml:space="preserve" text-anchor="middle" x="72.12" y="-405.3" font-family="Consolas" font-size="11.00">Hazard detection</text>
<text xml:space="preserve" text-anchor="middle" x="72.12" y="-391.8" font-family="Consolas" font-size="11.00">load&#45;use stall</text>
</g>
<!-- hazard&#45;&gt;if_stage -->
<g id="edge16" class="edge">
<title>hazard&#45;&gt;if_stage</title>
<path fill="none" stroke="#555555" d="M134.3,-408.25C134.3,-408.25 228.33,-408.25 228.33,-408.25"/>
<polygon fill="#555555" stroke="#555555" points="228.33,-411.75 238.33,-408.25 228.33,-404.75 228.33,-411.75"/>
<text xml:space="preserve" text-anchor="middle" x="192.25" y="-405.5" font-family="Consolas" font-size="10.00">stall</text>
</g>
<!-- hazard&#45;&gt;if_id -->
<g id="edge17" class="edge">
<title>hazard&#45;&gt;if_id</title>
<path fill="none" stroke="#555555" d="M51.75,-384.06C51.75,-357.8 51.75,-312.38 51.75,-312.38 51.75,-312.38 507.03,-312.38 507.03,-312.38"/>
<polygon fill="#555555" stroke="#555555" points="507.03,-315.88 517.03,-312.38 507.03,-308.88 507.03,-315.88"/>
<text xml:space="preserve" text-anchor="middle" x="346.12" y="-318.5" font-family="Consolas" font-size="10.00">stall</text>
</g>
<!-- hazard&#45;&gt;id_ex -->
<g id="edge18" class="edge">
<title>hazard&#45;&gt;id_ex</title>
<path fill="none" stroke="#555555" d="M92.75,-383.9C92.75,-366.91 92.75,-344.25 92.75,-344.25 92.75,-344.25 1125.75,-344.25 1125.75,-344.25 1125.75,-344.25 1125.75,-327.07 1125.75,-327.07"/>
<polygon fill="#555555" stroke="#555555" points="1129.25,-327.07 1125.75,-317.07 1122.25,-327.07 1129.25,-327.07"/>
<text xml:space="preserve" text-anchor="middle" x="557.38" y="-523.5" font-family="Consolas" font-size="10.00">bubble</text>
</g>
<!-- forward -->
<g id="node17" class="node">
<title>forward</title>
<path fill="#f1f8e9" stroke="#555555" d="M1192.5,-103.25C1192.5,-103.25 1058.75,-103.25 1058.75,-103.25 1052.75,-103.25 1046.75,-97.25 1046.75,-91.25 1046.75,-91.25 1046.75,-79.25 1046.75,-79.25 1046.75,-73.25 1052.75,-67.25 1058.75,-67.25 1058.75,-67.25 1192.5,-67.25 1192.5,-67.25 1198.5,-67.25 1204.5,-73.25 1204.5,-79.25 1204.5,-79.25 1204.5,-91.25 1204.5,-91.25 1204.5,-97.25 1198.5,-103.25 1192.5,-103.25"/>
<text xml:space="preserve" text-anchor="middle" x="1125.62" y="-88.3" font-family="Consolas" font-size="11.00">Forwarding unit</text>
<text xml:space="preserve" text-anchor="middle" x="1125.62" y="-74.8" font-family="Consolas" font-size="11.00">EX/MEM + MEM/WB paths</text>
</g>
<!-- forward&#45;&gt;ex_stage -->
<g id="edge19" class="edge">
<title>forward&#45;&gt;ex_stage</title>
<path fill="none" stroke="#555555" d="M1183.75,-103.46C1183.75,-150.98 1183.75,-275.12 1183.75,-275.12 1183.75,-275.12 1372.88,-275.12 1372.88,-275.12"/>
<polygon fill="#555555" stroke="#555555" points="1372.88,-278.63 1382.88,-275.13 1372.88,-271.63 1372.88,-278.63"/>
<text xml:space="preserve" text-anchor="middle" x="1294.5" y="-88.5" font-family="Consolas" font-size="10.00">forward_a/forward_b</text>
</g>
<!-- flush_ctl&#45;&gt;if_id -->
<g id="edge20" class="edge">
<title>flush_ctl&#45;&gt;if_id</title>
<path fill="none" stroke="#555555" d="M755.44,-203.25C677.39,-203.25 557.75,-203.25 557.75,-203.25 557.75,-203.25 557.75,-281.42 557.75,-281.42"/>
<polygon fill="#555555" stroke="#555555" points="554.25,-281.42 557.75,-291.42 561.25,-281.42 554.25,-281.42"/>
<text xml:space="preserve" text-anchor="middle" x="643.75" y="-242.5" font-family="Consolas" font-size="10.00">flush</text>
</g>
<!-- flush_ctl&#45;&gt;id_ex -->
<g id="edge21" class="edge">
<title>flush_ctl&#45;&gt;id_ex</title>
<path fill="none" stroke="#555555" d="M886.95,-211.25C976.46,-211.25 1125.75,-211.25 1125.75,-211.25 1125.75,-211.25 1125.75,-267.5 1125.75,-267.5"/>
<polygon fill="#555555" stroke="#555555" points="1122.25,-267.5 1125.75,-277.5 1129.25,-267.5 1122.25,-267.5"/>
<text xml:space="preserve" text-anchor="middle" x="998.75" y="-287.5" font-family="Consolas" font-size="10.00">flush</text>
</g>
</g>
</svg>
