<?xml version="1.0" encoding="UTF-8" standalone="no"?>
<!DOCTYPE svg PUBLIC "-//W3C//DTD SVG 1.1//EN"
 "http://www.w3.org/Graphics/SVG/1.1/DTD/svg11.dtd">
<!-- Generated by graphviz version 14.1.3 (20260303.0454)
 -->
<!-- Title: simd_unit Pages: 1 -->
<svg width="1037pt" height="334pt"
 viewBox="0.00 0.00 1037.00 334.00" xmlns="http://www.w3.org/2000/svg" xmlns:xlink="http://www.w3.org/1999/xlink">
<g id="graph0" class="graph" transform="scale(1 1) rotate(0) translate(4 330)">
<title>simd_unit</title>
<polygon fill="white" stroke="none" points="-4,4 -4,-330 1032.5,-330 1032.5,4 -4,4"/>
<text xml:space="preserve" text-anchor="middle" x="514.25" y="-303" font-family="Times,serif" font-size="20.00">Packed&#45;SIMD Unit in 32&#45;Bit Scalar Registers (Implemented — Phase 9)</text>
<!-- decode -->
<g id="node1" class="node">
<title>decode</title>
<path fill="#fafafa" stroke="#777777" stroke-dasharray="5,2" d="M267.25,-251C267.25,-251 12,-251 12,-251 6,-251 0,-245 0,-239 0,-239 0,-227 0,-227 0,-221 6,-215 12,-215 12,-215 267.25,-215 267.25,-215 273.25,-215 279.25,-221 279.25,-227 279.25,-227 279.25,-239 279.25,-239 279.25,-245 273.25,-251 267.25,-251"/>
<text xml:space="preserve" text-anchor="middle" x="139.62" y="-236.05" font-family="Consolas" font-size="11.00">Custom opcode decode</text>
<text xml:space="preserve" text-anchor="middle" x="139.62" y="-222.55" font-family="Consolas" font-size="11.00">PADD8 / PSUB8 / PMAXU8 / PMINU8 / PAVG8</text>
</g>
<!-- split -->
<g id="node4" class="node">
<title>split</title>
<path fill="#fafafa" stroke="#777777" stroke-dasharray="5,2" d="M449.5,-165C449.5,-165 356.25,-165 356.25,-165 350.25,-165 344.25,-159 344.25,-153 344.25,-153 344.25,-141 344.25,-141 344.25,-135 350.25,-129 356.25,-129 356.25,-129 449.5,-129 449.5,-129 455.5,-129 461.5,-135 461.5,-141 461.5,-141 461.5,-153 461.5,-153 461.5,-159 455.5,-165 449.5,-165"/>
<text xml:space="preserve" text-anchor="middle" x="402.88" y="-150.05" font-family="Consolas" font-size="11.00">Byte lane split</text>
<text xml:space="preserve" text-anchor="middle" x="402.88" y="-136.55" font-family="Consolas" font-size="11.00">4 x 8&#45;bit lanes</text>
</g>
<!-- decode&#45;&gt;split -->
<g id="edge1" class="edge">
<title>decode&#45;&gt;split</title>
<path fill="none" stroke="#777777" stroke-dasharray="5,2" d="M257.5,-214.85C257.5,-191.24 257.5,-153 257.5,-153 257.5,-153 332.65,-153 332.65,-153"/>
<polygon fill="#777777" stroke="#777777" points="332.65,-156.5 342.65,-153 332.65,-149.5 332.65,-156.5"/>
</g>
<!-- rs1 -->
<g id="node2" class="node">
<title>rs1</title>
<path fill="#fafafa" stroke="#777777" stroke-dasharray="5,2" d="M223.38,-165C223.38,-165 55.88,-165 55.88,-165 49.88,-165 43.88,-159 43.88,-153 43.88,-153 43.88,-141 43.88,-141 43.88,-135 49.88,-129 55.88,-129 55.88,-129 223.38,-129 223.38,-129 229.38,-129 235.38,-135 235.38,-141 235.38,-141 235.38,-153 235.38,-153 235.38,-159 229.38,-165 223.38,-165"/>
<text xml:space="preserve" text-anchor="middle" x="139.62" y="-150.05" font-family="Consolas" font-size="11.00">rs1 32&#45;bit scalar register</text>
<text xml:space="preserve" text-anchor="middle" x="139.62" y="-136.55" font-family="Consolas" font-size="11.00">{b3,b2,b1,b0}</text>
</g>
<!-- rs1&#45;&gt;split -->
<g id="edge2" class="edge">
<title>rs1&#45;&gt;split</title>
<path fill="none" stroke="#777777" stroke-dasharray="5,2" d="M235.78,-141C235.78,-141 332.57,-141 332.57,-141"/>
<polygon fill="#777777" stroke="#777777" points="332.57,-144.5 342.57,-141 332.57,-137.5 332.57,-144.5"/>
</g>
<!-- rs2 -->
<g id="node3" class="node">
<title>rs2</title>
<path fill="#fafafa" stroke="#777777" stroke-dasharray="5,2" d="M223.38,-79C223.38,-79 55.88,-79 55.88,-79 49.88,-79 43.88,-73 43.88,-67 43.88,-67 43.88,-55 43.88,-55 43.88,-49 49.88,-43 55.88,-43 55.88,-43 223.38,-43 223.38,-43 229.38,-43 235.38,-49 235.38,-55 235.38,-55 235.38,-67 235.38,-67 235.38,-73 229.38,-79 223.38,-79"/>
<text xml:space="preserve" text-anchor="middle" x="139.62" y="-64.05" font-family="Consolas" font-size="11.00">rs2 32&#45;bit scalar register</text>
<text xml:space="preserve" text-anchor="middle" x="139.62" y="-50.55" font-family="Consolas" font-size="11.00">{b3,b2,b1,b0}</text>
</g>
<!-- rs2&#45;&gt;split -->
<g id="edge3" class="edge">
<title>rs2&#45;&gt;split</title>
<path fill="none" stroke="#777777" stroke-dasharray="5,2" d="M235.66,-61C303.91,-61 383.5,-61 383.5,-61 383.5,-61 383.5,-117.25 383.5,-117.25"/>
<polygon fill="#777777" stroke="#777777" points="380,-117.25 383.5,-127.25 387,-117.25 380,-117.25"/>
</g>
<!-- lane0 -->
<g id="node5" class="node">
<title>lane0</title>
<path fill="#fafafa" stroke="#777777" stroke-dasharray="5,2" d="M591.25,-294C591.25,-294 538.5,-294 538.5,-294 532.5,-294 526.5,-288 526.5,-282 526.5,-282 526.5,-270 526.5,-270 526.5,-264 532.5,-258 538.5,-258 538.5,-258 591.25,-258 591.25,-258 597.25,-258 603.25,-264 603.25,-270 603.25,-270 603.25,-282 603.25,-282 603.25,-288 597.25,-294 591.25,-294"/>
<text xml:space="preserve" text-anchor="middle" x="564.88" y="-279.05" font-family="Consolas" font-size="11.00">lane 0</text>
<text xml:space="preserve" text-anchor="middle" x="564.88" y="-265.55" font-family="Consolas" font-size="11.00">8&#45;bit ALU</text>
</g>
<!-- split&#45;&gt;lane0 -->
<g id="edge4" class="edge">
<title>split&#45;&gt;lane0</title>
<path fill="none" stroke="#777777" stroke-dasharray="5,2" d="M402.5,-165.48C402.5,-201.15 402.5,-276 402.5,-276 402.5,-276 514.88,-276 514.88,-276"/>
<polygon fill="#777777" stroke="#777777" points="514.88,-279.5 524.88,-276 514.88,-272.5 514.88,-279.5"/>
</g>
<!-- lane1 -->
<g id="node6" class="node">
<title>lane1</title>
<path fill="#fafafa" stroke="#777777" stroke-dasharray="5,2" d="M591.25,-208C591.25,-208 538.5,-208 538.5,-208 532.5,-208 526.5,-202 526.5,-196 526.5,-196 526.5,-184 526.5,-184 526.5,-178 532.5,-172 538.5,-172 538.5,-172 591.25,-172 591.25,-172 597.25,-172 603.25,-178 603.25,-184 603.25,-184 603.25,-196 603.25,-196 603.25,-202 597.25,-208 591.25,-208"/>
<text xml:space="preserve" text-anchor="middle" x="564.88" y="-193.05" font-family="Consolas" font-size="11.00">lane 1</text>
<text xml:space="preserve" text-anchor="middle" x="564.88" y="-179.55" font-family="Consolas" font-size="11.00">8&#45;bit ALU</text>
</g>
<!-- split&#45;&gt;lane1 -->
<g id="edge5" class="edge">
<title>split&#45;&gt;lane1</title>
<path fill="none" stroke="#777777" stroke-dasharray="5,2" d="M461.77,-157.8C505.47,-157.8 557.5,-157.8 557.5,-157.8 557.5,-157.8 557.5,-160.13 557.5,-160.13"/>
<polygon fill="#777777" stroke="#777777" points="554,-160.13 557.5,-170.13 561,-160.13 554,-160.13"/>
</g>
<!-- lane2 -->
<g id="node7" class="node">
<title>lane2</title>
<path fill="#fafafa" stroke="#777777" stroke-dasharray="5,2" d="M591.25,-122C591.25,-122 538.5,-122 538.5,-122 532.5,-122 526.5,-116 526.5,-110 526.5,-110 526.5,-98 526.5,-98 526.5,-92 532.5,-86 538.5,-86 538.5,-86 591.25,-86 591.25,-86 597.25,-86 603.25,-92 603.25,-98 603.25,-98 603.25,-110 603.25,-110 603.25,-116 597.25,-122 591.25,-122"/>
<text xml:space="preserve" text-anchor="middle" x="564.88" y="-107.05" font-family="Consolas" font-size="11.00">lane 2</text>
<text xml:space="preserve" text-anchor="middle" x="564.88" y="-93.55" font-family="Consolas" font-size="11.00">8&#45;bit ALU</text>
</g>
<!-- split&#45;&gt;lane2 -->
<g id="edge6" class="edge">
<title>split&#45;&gt;lane2</title>
<path fill="none" stroke="#777777" stroke-dasharray="5,2" d="M461.66,-143.4C499.45,-143.4 541.5,-143.4 541.5,-143.4 541.5,-143.4 541.5,-133.83 541.5,-133.83"/>
<polygon fill="#777777" stroke="#777777" points="545,-133.83 541.5,-123.83 538,-133.83 545,-133.83"/>
</g>
<!-- lane3 -->
<g id="node8" class="node">
<title>lane3</title>
<path fill="#fafafa" stroke="#777777" stroke-dasharray="5,2" d="M591.25,-36C591.25,-36 538.5,-36 538.5,-36 532.5,-36 526.5,-30 526.5,-24 526.5,-24 526.5,-12 526.5,-12 526.5,-6 532.5,0 538.5,0 538.5,0 591.25,0 591.25,0 597.25,0 603.25,-6 603.25,-12 603.25,-12 603.25,-24 603.25,-24 603.25,-30 597.25,-36 591.25,-36"/>
<text xml:space="preserve" text-anchor="middle" x="564.88" y="-21.05" font-family="Consolas" font-size="11.00">lane 3</text>
<text xml:space="preserve" text-anchor="middle" x="564.88" y="-7.55" font-family="Consolas" font-size="11.00">8&#45;bit ALU</text>
</g>
<!-- split&#45;&gt;lane3 -->
<g id="edge7" class="edge">
<title>split&#45;&gt;lane3</title>
<path fill="none" stroke="#777777" stroke-dasharray="5,2" d="M422.5,-128.52C422.5,-92.85 422.5,-18 422.5,-18 422.5,-18 514.83,-18 514.83,-18"/>
<polygon fill="#777777" stroke="#777777" points="514.83,-21.5 524.83,-18 514.83,-14.5 514.83,-21.5"/>
</g>
<!-- pack -->
<g id="node9" class="node">
<title>pack</title>
<path fill="#fafafa" stroke="#777777" stroke-dasharray="5,2" d="M780.25,-165C780.25,-165 680.25,-165 680.25,-165 674.25,-165 668.25,-159 668.25,-153 668.25,-153 668.25,-141 668.25,-141 668.25,-135 674.25,-129 680.25,-129 680.25,-129 780.25,-129 780.25,-129 786.25,-129 792.25,-135 792.25,-141 792.25,-141 792.25,-153 792.25,-153 792.25,-159 786.25,-165 780.25,-165"/>
<text xml:space="preserve" text-anchor="middle" x="730.25" y="-150.05" font-family="Consolas" font-size="11.00">Pack result</text>
<text xml:space="preserve" text-anchor="middle" x="730.25" y="-136.55" font-family="Consolas" font-size="11.00">32&#45;bit scalar rd</text>
</g>
<!-- lane0&#45;&gt;pack -->
<g id="edge8" class="edge">
<title>lane0&#45;&gt;pack</title>
<path fill="none" stroke="#777777" stroke-dasharray="5,2" d="M603.71,-276C652.66,-276 730.5,-276 730.5,-276 730.5,-276 730.5,-177 730.5,-177"/>
<polygon fill="#777777" stroke="#777777" points="734,-177 730.5,-167 727,-177 734,-177"/>
</g>
<!-- lane1&#45;&gt;pack -->
<g id="edge9" class="edge">
<title>lane1&#45;&gt;pack</title>
<path fill="none" stroke="#777777" stroke-dasharray="5,2" d="M587.5,-171.68C587.5,-161.4 587.5,-150.6 587.5,-150.6 587.5,-150.6 656.54,-150.6 656.54,-150.6"/>
<polygon fill="#777777" stroke="#777777" points="656.54,-154.1 666.54,-150.6 656.54,-147.1 656.54,-154.1"/>
</g>
<!-- lane2&#45;&gt;pack -->
<g id="edge10" class="edge">
<title>lane2&#45;&gt;pack</title>
<path fill="none" stroke="#777777" stroke-dasharray="5,2" d="M572.5,-122.36C572.5,-129.59 572.5,-136.2 572.5,-136.2 572.5,-136.2 656.39,-136.2 656.39,-136.2"/>
<polygon fill="#777777" stroke="#777777" points="656.39,-139.7 666.39,-136.2 656.39,-132.7 656.39,-139.7"/>
</g>
<!-- lane3&#45;&gt;pack -->
<g id="edge11" class="edge">
<title>lane3&#45;&gt;pack</title>
<path fill="none" stroke="#777777" stroke-dasharray="5,2" d="M603.71,-18C652.66,-18 730.5,-18 730.5,-18 730.5,-18 730.5,-117 730.5,-117"/>
<polygon fill="#777777" stroke="#777777" points="727,-117 730.5,-127 734,-117 727,-117"/>
</g>
<!-- wb -->
<g id="node10" class="node">
<title>wb</title>
<path fill="#fafafa" stroke="#777777" stroke-dasharray="5,2" d="M1016.5,-165C1016.5,-165 869.25,-165 869.25,-165 863.25,-165 857.25,-159 857.25,-153 857.25,-153 857.25,-141 857.25,-141 857.25,-135 863.25,-129 869.25,-129 869.25,-129 1016.5,-129 1016.5,-129 1022.5,-129 1028.5,-135 1028.5,-141 1028.5,-141 1028.5,-153 1028.5,-153 1028.5,-159 1022.5,-165 1016.5,-165"/>
<text xml:space="preserve" text-anchor="middle" x="942.88" y="-150.05" font-family="Consolas" font-size="11.00">Existing writeback path</text>
<text xml:space="preserve" text-anchor="middle" x="942.88" y="-136.55" font-family="Consolas" font-size="11.00">no vector register file</text>
</g>
<!-- pack&#45;&gt;wb -->
<g id="edge12" class="edge">
<title>pack&#45;&gt;wb</title>
<path fill="none" stroke="#777777" stroke-dasharray="5,2" d="M792.61,-147C792.61,-147 845.32,-147 845.32,-147"/>
<polygon fill="#777777" stroke="#777777" points="845.32,-150.5 855.32,-147 845.32,-143.5 845.32,-150.5"/>
</g>
</g>
</svg>
